<svg width="16" height="21" viewBox="0 0 16 21" fill="none" xmlns="http://www.w3.org/2000/svg">
    <path d="M2.11746 6.22969H4.57236V17.2428C4.57236 17.9933 4.42995 18.6127 4.14512 19.1009C3.8603 19.5892 3.44889 19.9531 2.9109 20.1928C2.3729 20.4324 1.71962 20.5522 0.951048 20.5522C0.860628 20.5522 0.77699 20.5499 0.700133 20.5454C0.623277 20.5454 0.539638 20.5431 0.449219 20.5386V18.5381C0.517034 18.5426 0.578067 18.5449 0.632319 18.5449C0.68657 18.5494 0.743083 18.5516 0.801856 18.5516C1.27204 18.5516 1.60885 18.4364 1.8123 18.2058C2.01574 17.9797 2.11746 17.6474 2.11746 17.2089V6.22969ZM3.33813 4.75133C2.9448 4.75133 2.60799 4.62248 2.32769 4.36479C2.05191 4.10257 1.91402 3.78836 1.91402 3.42216C1.91402 3.05144 2.05191 2.73723 2.32769 2.47954C2.60799 2.21732 2.9448 2.08621 3.33813 2.08621C3.72693 2.08621 4.05923 2.21732 4.33501 2.47954C4.61531 2.73723 4.75546 3.05144 4.75546 3.42216C4.75546 3.78836 4.61531 4.10257 4.33501 4.36479C4.05923 4.62248 3.72693 4.75133 3.33813 4.75133Z" fill="#595959"/>
    <path d="M8.62371 10.0119V8.56365L12.0077 5.43033C12.2955 5.15182 12.5369 4.90115 12.7318 4.67834C12.9299 4.45552 13.08 4.23735 13.1821 4.02382C13.2842 3.8072 13.3353 3.57355 13.3353 3.32289C13.3353 3.04437 13.2719 2.80453 13.145 2.60338C13.0181 2.39914 12.8448 2.24286 12.6251 2.13454C12.4054 2.02314 12.1562 1.96743 11.8777 1.96743C11.5868 1.96743 11.3331 2.02623 11.1164 2.14383C10.8998 2.26142 10.7327 2.43008 10.6151 2.6498C10.4975 2.86952 10.4387 3.13102 10.4387 3.43429H8.53087C8.53087 2.81227 8.67168 2.27226 8.95329 1.81425C9.2349 1.35624 9.62947 1.00191 10.137 0.751242C10.6445 0.500577 11.2294 0.375244 11.8916 0.375244C12.5725 0.375244 13.1651 0.495935 13.6695 0.737317C14.177 0.975604 14.5716 1.30673 14.8532 1.73069C15.1348 2.15466 15.2756 2.64052 15.2756 3.18827C15.2756 3.54725 15.2045 3.90158 15.0621 4.25128C14.9228 4.60097 14.6737 4.98935 14.3147 5.41641C13.9558 5.84037 13.4498 6.34944 12.7968 6.94361L11.4089 8.3037V8.36869H15.401V10.0119H8.62371Z" fill="#595959"/>
</svg>
