<svg width="96" height="96" viewBox="0 0 96 96" fill="none" xmlns="http://www.w3.org/2000/svg">
<g clip-path="url(#clip0_145_1217)">
<rect width="96" height="96" rx="14" fill="white"/>
<line x1="108.126" y1="6.49854" x2="-16.1035" y2="6.49852" stroke="#D9D9D9" stroke-width="4"/>
<line x1="89.4199" y1="107.965" x2="89.4199" y2="-16.2647" stroke="#D9D9D9" stroke-width="4"/>
<line x1="108.126" y1="27.1733" x2="-16.1035" y2="27.1733" stroke="#D9D9D9" stroke-width="4"/>
<line x1="68.7402" y1="107.965" x2="68.7402" y2="-16.2647" stroke="#D9D9D9" stroke-width="4"/>
<line x1="108.126" y1="68.5244" x2="-16.1035" y2="68.5244" stroke="#D9D9D9" stroke-width="4"/>
<line x1="27.3965" y1="107.965" x2="27.3965" y2="-16.2647" stroke="#D9D9D9" stroke-width="4"/>
<line x1="108.126" y1="89.1992" x2="-16.1035" y2="89.1992" stroke="#D9D9D9" stroke-width="4"/>
<line x1="6.72754" y1="107.965" x2="6.72756" y2="-16.2647" stroke="#D9D9D9" stroke-width="4"/>
<line x1="108.126" y1="47.8481" x2="-16.1035" y2="47.8481" stroke="#848484" stroke-width="4"/>
<line x1="48.0713" y1="107.965" x2="48.0713" y2="-16.2647" stroke="#848484" stroke-width="4"/>
<path d="M-59.8785 68.6287C-43.1969 68.6287 -30.6214 22.4913 -13.9398 22.4913C2.74184 22.4913 15.3658 68.6288 32.0474 68.6288C48.7291 68.6288 61.353 22.4913 78.0347 22.4913C86.3755 22.4913 93.7394 34.0257 101.028 45.5601V172.109H-128.859V45.56C-121.571 34.0256 -114.207 22.4912 -105.866 22.4912C-89.1841 22.4912 -76.5602 68.6287 -59.8785 68.6287Z" fill="#1C6DED" fill-opacity="0.53"/>
<path d="M-128.859 45.56C-121.571 34.0256 -114.207 22.4912 -105.866 22.4912C-89.1841 22.4912 -76.5602 68.6287 -59.8785 68.6287C-43.1969 68.6287 -30.6214 22.4913 -13.9398 22.4913C2.74184 22.4913 15.3658 68.6288 32.0474 68.6288C48.7291 68.6288 61.353 22.4913 78.0347 22.4913C86.3755 22.4913 93.7394 34.0257 101.028 45.5601" stroke="#136DFB" stroke-width="11.5914" stroke-linecap="square"/>
</g>
<defs>
<clipPath id="clip0_145_1217">
<rect width="96" height="96" rx="14" fill="white"/>
</clipPath>
</defs>
</svg>
